<svg xmlns="http://www.w3.org/2000/svg" xmlns:xlink="http://www.w3.org/1999/xlink" viewBox="0 0 100 125" version="1.1" xml:space="preserve" style="" x="0px" y="0px" fill-rule="evenodd" clip-rule="evenodd" stroke-linejoin="round" stroke-miterlimit="1.41421"><g transform="matrix(1,0,0,1,-334.059,-70)"><path d="M390.55,134.878C390.55,134.878 386.148,130.476 386.141,130.469C386.141,130.469 386.141,130.469 386.141,130.469C385.556,129.883 384.606,129.883 384.02,130.469C384.02,130.469 384.02,130.469 384.02,130.469C383.434,131.055 383.434,132.005 384.02,132.59C384.02,132.59 384.02,132.59 384.02,132.59C384.025,132.596 387.407,135.977 390.984,139.554C391.569,140.14 392.519,140.14 393.105,139.554C396.525,136.134 399.531,133.128 400.061,132.598C400.647,132.012 400.647,131.062 400.061,130.477C399.475,129.891 398.525,129.891 397.94,130.477L393.55,134.866L393.55,111.499C393.55,111.101 393.392,110.72 393.111,110.438C392.829,110.157 392.448,109.999 392.05,109.999C391.652,109.999 391.271,110.157 390.989,110.438C390.708,110.72 390.55,111.101 390.55,111.499L390.55,134.878ZM377.49,105.115L381.899,109.523C382.485,110.109 383.434,110.109 384.02,109.523C384.02,109.523 384.02,109.523 384.02,109.523C384.606,108.937 384.606,107.988 384.02,107.402L377.057,100.438C376.471,99.853 375.521,99.853 374.935,100.438C371.516,103.858 368.51,106.864 367.979,107.394C367.393,107.98 367.393,108.93 367.979,109.516C368.565,110.101 369.515,110.101 370.101,109.516L374.49,105.126L374.49,128.493C374.49,128.891 374.648,129.273 374.93,129.554C375.211,129.835 375.592,129.993 375.99,129.993C376.388,129.993 376.77,129.835 377.051,129.554C377.332,129.273 377.49,128.891 377.49,128.493L377.49,105.115Z" style=""/></g><text x="0" y="115" fill="#000000" font-size="5px" font-weight="bold" font-family="'Helvetica Neue', Helvetica, Arial-Unicode, Arial, Sans-serif">Created by Ryo Sato</text><text x="0" y="120" fill="#000000" font-size="5px" font-weight="bold" font-family="'Helvetica Neue', Helvetica, Arial-Unicode, Arial, Sans-serif">from the Noun Project</text></svg>