<svg xmlns="http://www.w3.org/2000/svg" xmlns:xlink="http://www.w3.org/1999/xlink" viewBox="0 0 100 125" version="1.1" xml:space="preserve" style="" x="0px" y="0px" fill-rule="evenodd" clip-rule="evenodd" stroke-linejoin="round" stroke-miterlimit="1.41421"><g transform="matrix(1,0,0,1,-550,-70)"><path d="M584.15,134C584.846,130.578 587.874,128 591.5,128C595.126,128 598.154,130.578 598.85,134L622,134C622.828,134 623.5,134.672 623.5,135.5C623.5,136.328 622.828,137 622,137L598.85,137C598.154,140.422 595.126,143 591.5,143C587.874,143 584.846,140.422 584.15,137L578,137C577.172,137 576.5,136.328 576.5,135.5C576.5,134.672 577.172,134 578,134L584.15,134ZM591.5,140C589.019,140 587,137.981 587,135.5C587,133.019 589.019,131 591.5,131C593.981,131 596,133.019 596,135.5C596,137.981 593.981,140 591.5,140ZM601.15,119C601.846,115.578 604.874,113 608.5,113C612.126,113 615.154,115.578 615.85,119L622,119C622.828,119 623.5,119.672 623.5,120.5C623.5,121.328 622.828,122 622,122L615.85,122C615.154,125.422 612.126,128 608.5,128C604.874,128 601.846,125.422 601.15,122L578,122C577.172,122 576.5,121.328 576.5,120.5C576.5,119.672 577.172,119 578,119L601.15,119ZM608.5,125C606.019,125 604,122.981 604,120.5C604,118.019 606.019,116 608.5,116C610.981,116 613,118.019 613,120.5C613,122.981 610.981,125 608.5,125ZM584.15,104C584.846,100.578 587.874,98 591.5,98C595.126,98 598.154,100.578 598.85,104L622,104C622.828,104 623.5,104.672 623.5,105.5C623.5,106.328 622.828,107 622,107L598.85,107C598.154,110.422 595.126,113 591.5,113C587.874,113 584.846,110.422 584.15,107L578,107C577.172,107 576.5,106.328 576.5,105.5C576.5,104.672 577.172,104 578,104L584.15,104ZM591.5,110C589.019,110 587,107.981 587,105.5C587,103.019 589.019,101 591.5,101C593.981,101 596,103.019 596,105.5C596,107.981 593.981,110 591.5,110Z" style=""/></g><text x="0" y="115" fill="#000000" font-size="5px" font-weight="bold" font-family="'Helvetica Neue', Helvetica, Arial-Unicode, Arial, Sans-serif">Created by Ryo Sato</text><text x="0" y="120" fill="#000000" font-size="5px" font-weight="bold" font-family="'Helvetica Neue', Helvetica, Arial-Unicode, Arial, Sans-serif">from the Noun Project</text></svg>