<?xml version="1.0" encoding="utf-8"?>
<!-- Generator: Adobe Illustrator 16.0.0, SVG Export Plug-In . SVG Version: 6.00 Build 0)  -->
<!DOCTYPE svg PUBLIC "-//W3C//DTD SVG 1.1//EN" "http://www.w3.org/Graphics/SVG/1.1/DTD/svg11.dtd">
<svg version="1.1" id="Layer_1" xmlns="http://www.w3.org/2000/svg" xmlns:xlink="http://www.w3.org/1999/xlink" x="0px" y="0px" viewBox="0 0 32 32" xml:space="preserve">
<g>
	<path fill="currentColor" d="M15.962,20.98c-0.188,0-0.361-0.09-0.482-0.242l-5.44-5.779
		c-0.163-0.214-0.595-0.777-0.34-1.368c0.275-0.635,0.985-0.638,1.971-0.639h8.583c0.983,0.001,1.693,0.004,1.972,0.639
		c0.255,0.59-0.179,1.154-0.34,1.365l-5.442,5.782C16.325,20.891,16.147,20.98,15.962,20.98z M11.159,14.306l4.803,4.946
		l4.801-4.946c-0.172-0.006-0.359-0.007-0.513-0.007h-8.577C11.514,14.299,11.328,14.3,11.159,14.306z"/>
</g>
</svg>
