<?xml version="1.0" encoding="utf-8"?>
<!-- Generator: Adobe Illustrator 16.0.0, SVG Export Plug-In . SVG Version: 6.00 Build 0)  -->
<!DOCTYPE svg PUBLIC "-//W3C//DTD SVG 1.1//EN" "http://www.w3.org/Graphics/SVG/1.1/DTD/svg11.dtd">
<svg version="1.1" id="Layer_1" xmlns="http://www.w3.org/2000/svg" xmlns:xlink="http://www.w3.org/1999/xlink" x="0px" y="0px" viewBox="0 0 32 32" xml:space="preserve">
	<path fill="currentColor" d="M15.999,7.501c4.696,0,8.502,3.805,8.502,8.5c0,4.695-3.806,8.5-8.502,8.5
		c-4.693,0-8.5-3.805-8.5-8.5C7.499,11.306,11.306,7.501,15.999,7.501 M15.999,6.328c-5.342,0-9.672,4.331-9.672,9.673
		c0,5.339,4.33,9.671,9.672,9.671S25.673,21.34,25.673,16C25.673,10.659,21.341,6.328,15.999,6.328z"/>
	<polygon fill="currentColor" points="14.825,20.148 11.724,16.075 12.842,15.228 14.858,17.871 19.168,12.547 20.265,13.431 	"/>
</svg>
