<svg xmlns="http://www.w3.org/2000/svg" xmlns:xlink="http://www.w3.org/1999/xlink" viewBox="0 0 100 125" version="1.1" xml:space="preserve" style="" x="0px" y="0px" fill="currentColor" fill-rule="evenodd" clip-rule="evenodd" stroke-linejoin="round" stroke-miterlimit="1.41421"><g transform="matrix(-2.60392e-16,-1,-1,2.60392e-16,97.9943,146.036)"><path d="M110.879,46.5C110.879,46.5 106.477,42.098 106.47,42.091C106.47,42.091 106.47,42.091 106.47,42.091C105.884,41.506 105.884,40.556 106.47,39.97C106.47,39.97 106.47,39.97 106.47,39.97C107.056,39.384 108.006,39.384 108.591,39.97L115.555,46.934C116.141,47.519 116.141,48.469 115.555,49.055C112.135,52.475 109.129,55.481 108.599,56.011C108.013,56.597 107.063,56.597 106.478,56.011C105.892,55.425 105.892,54.475 106.478,53.89L110.867,49.5L77.5,49.5C77.102,49.5 76.721,49.342 76.439,49.061C76.158,48.779 76,48.398 76,48C76,47.602 76.158,47.221 76.439,46.939C76.721,46.658 77.102,46.5 77.5,46.5L110.879,46.5Z" /></g><text x="0" y="115" fill="#000000" font-size="5px" font-weight="bold" font-family="'Helvetica Neue', Helvetica, Arial-Unicode, Arial, Sans-serif">Created by Ryo Sato</text><text x="0" y="120" fill="#000000" font-size="5px" font-weight="bold" font-family="'Helvetica Neue', Helvetica, Arial-Unicode, Arial, Sans-serif">from the Noun Project</text></svg>