<?xml version="1.0" encoding="utf-8"?>
<!-- Generator: Adobe Illustrator 16.0.0, SVG Export Plug-In . SVG Version: 6.00 Build 0)  -->
<!DOCTYPE svg PUBLIC "-//W3C//DTD SVG 1.1//EN" "http://www.w3.org/Graphics/SVG/1.1/DTD/svg11.dtd">
<svg version="1.1" id="Layer_1" xmlns="http://www.w3.org/2000/svg" xmlns:xlink="http://www.w3.org/1999/xlink" x="0px" y="0px" viewBox="0 0 32 32" xml:space="preserve">
<path fill="currentColor" d="M17.109,25.748h-0.756v-1.402h0.654l0.652-0.102l0.213,1.389L17.109,25.748z M13.23,25.41
	l-0.797-0.254l-0.628-0.318l0.628-1.26l0.584,0.293l0.624,0.193L13.23,25.41z M20.957,24.5l-0.83-1.135l1.139-0.832l0.842,1.127
	L20.957,24.5z M9.142,23.064l-0.953-1.059l1.047-0.943l0.94,1.047L9.142,23.064z M24.248,21.238l-1.217-0.707l0.697-1.197
	l1.207,0.631L24.6,20.633L24.248,21.238z M6.483,18.381l-0.224-0.67l1.353-0.383l0.248,0.76l0.146,0.686L6.633,19.07L6.483,18.381
	 M25.74,16.771l-1.406-0.037V15.33l1.406-0.02V16.771z M7.688,14.791l-1.359-0.352l0.172-0.781l0.221-0.668l1.335,0.443
	l-0.223,0.674L7.688,14.791z M9.235,11.035l-1.059-0.928l0.955-1.061l1.044,0.943L9.235,11.035z M12.269,8.457l-0.412-1.342
	l0.627-0.191l0.58-0.293l0.631,1.256L12.94,8.25L12.269,8.457z M17.139,6.349h0.701l-0.082,1.404l-0.818-0.012l-0.698-0.098
	l0.199-1.393L17.139,6.349"/>
<rect x="10.731" y="15.345" fill="currentColor" width="10.479" height="1.407"/>
<polygon fill="currentColor" points="20.885,7.567 21.594,8.012 22.122,8.477 21.2,9.541 20.708,9.111 20.151,8.768 "/>
<polygon fill="currentColor" points="24.26,10.858 24.92,12.122 23.671,12.774 23.021,11.525 "/>
</svg>
