<svg xmlns="http://www.w3.org/2000/svg" viewBox="0 0 96.62 96.62"><defs><style>.cls-1{fill:none;stroke:currentColor;stroke-miterlimit:10;stroke-width:4px;}</style></defs><title>libp2p_icons_cloud</title><g id="Layer_40" data-name="Layer 40"><path class="cls-1" d="M72.84,44.9A9.67,9.67,0,0,0,68.27,46a10.88,10.88,0,0,0,.06-1.14A10.7,10.7,0,0,0,57.76,34.06,10.45,10.45,0,0,0,49.64,38a13.31,13.31,0,0,0-12.25-8.31A13.46,13.46,0,0,0,24.1,42.58a11.35,11.35,0,0,0-9.83,11.35c0,11.65,10,13.05,10.52,13.05H72.7c3.47,0,9.35-5.53,9.35-11.18S78.36,44.9,72.84,44.9Z"/></g></svg>