<svg xmlns="http://www.w3.org/2000/svg" viewBox="0 0 96 96"><defs><style>.cls-1{fill:none;stroke:currentColor;stroke-miterlimit:10;stroke-width:4px;}.cls-2{fill:currentColor;}</style></defs><title>libp2p_icons_pen</title><g id="Layer_13" data-name="Layer 13"><line class="cls-1" x1="23.63" y1="57.63" x2="38.37" y2="72.37"/><path class="cls-2" d="M69.72,18.84a7.5,7.5,0,0,1,5.1,2.34c2.24,2.23,3,5.45,1.74,7.28L73.05,32,31.49,73.6l-12.09,3,3-12.09L63.94,23l3.6-3.54a4,4,0,0,1,2.18-.6m0-4a7.71,7.71,0,0,0-4.78,1.55l-3.8,3.73L18.79,62.47l-3.88,15.6a2.49,2.49,0,0,0,2.41,3.09,2.6,2.6,0,0,0,.61-.07l15.6-3.88L75.88,34.86l3.73-3.8c2.64-3.4,1.86-8.9-2-12.71a11.44,11.44,0,0,0-7.93-3.51Z"/><line class="cls-1" x1="60.84" y1="24.74" x2="71.48" y2="35.38"/></g></svg>