<?xml version="1.0" encoding="utf-8"?>
<!DOCTYPE svg PUBLIC "-//W3C//DTD SVG 1.1//EN" "http://www.w3.org/Graphics/SVG/1.1/DTD/svg11.dtd">
<svg version="1.1" id="Layer_1" xmlns="http://www.w3.org/2000/svg" xmlns:xlink="http://www.w3.org/1999/xlink" viewBox="0 0 32 32" xml:space="preserve">
<g>
	<path fill="currentColor" d="M15.961,11.952c0.188,0,0.361,0.09,0.482,0.242l5.441,5.779c0.163,0.214,0.595,0.777,0.34,1.368
		c-0.275,0.635-0.985,0.637-1.972,0.639H11.67c-0.983-0.002-1.693-0.004-1.972-0.64c-0.255-0.59,0.179-1.153,0.34-1.364l5.442-5.782
		C15.598,12.042,15.776,11.952,15.961,11.952z M20.765,18.627l-4.803-4.946l-4.801,4.946c0.172,0.006,0.359,0.007,0.513,0.007h8.578
		C20.41,18.634,20.596,18.633,20.765,18.627z"/>
</g>
</svg>
