<?xml version="1.0" encoding="utf-8"?>
<!-- Generator: Adobe Illustrator 16.0.0, SVG Export Plug-In . SVG Version: 6.00 Build 0)  -->
<!DOCTYPE svg PUBLIC "-//W3C//DTD SVG 1.1//EN" "http://www.w3.org/Graphics/SVG/1.1/DTD/svg11.dtd">
<svg version="1.1" id="Layer_1" xmlns="http://www.w3.org/2000/svg" xmlns:xlink="http://www.w3.org/1999/xlink" x="0px" y="0px" viewBox="0 0 32 32" xml:space="preserve">
<g>
	<path fill="currentColor" d="M13.754,17.688c-1.492,0-2.737,1.026-3.097,2.405H6.979v1.727h3.713
		c0.399,1.321,1.612,2.291,3.061,2.291c1.45,0,2.662-0.97,3.061-2.291h8.206v-1.727H16.85
		C16.491,18.715,15.247,17.688,13.754,17.688z M13.754,22.33c-0.788,0-1.429-0.643-1.429-1.432c0-0.786,0.641-1.429,1.429-1.429
		c0.787,0,1.429,0.643,1.429,1.429C15.183,21.688,14.541,22.33,13.754,22.33z"/>
	<path fill="currentColor" d="M21.334,10.271c-0.368-1.367-1.606-2.382-3.089-2.382c-1.483,0-2.722,1.015-3.089,2.382H6.979v1.727
		h8.198c0.392,1.333,1.609,2.313,3.067,2.313c1.456,0,2.676-0.981,3.067-2.313h3.708v-1.727H21.334z M18.245,12.53
		c-0.788,0-1.429-0.643-1.429-1.433c0-0.786,0.641-1.429,1.429-1.429c0.787,0,1.43,0.643,1.43,1.429
		C19.675,11.888,19.032,12.53,18.245,12.53z"/>
</g>
</svg>
