<?xml version="1.0" encoding="utf-8"?>
<!-- Generator: Adobe Illustrator 16.0.0, SVG Export Plug-In . SVG Version: 6.00 Build 0)  -->
<!DOCTYPE svg PUBLIC "-//W3C//DTD SVG 1.1//EN" "http://www.w3.org/Graphics/SVG/1.1/DTD/svg11.dtd">
<svg version="1.1" id="Layer_1" xmlns="http://www.w3.org/2000/svg" xmlns:xlink="http://www.w3.org/1999/xlink" x="0px" y="0px" viewBox="0 0 32 32" xml:space="preserve">
	<polygon fill="currentColor" points="14.796,20.212 11.696,16.138 12.813,15.288 14.83,17.935 19.141,12.61 20.234,13.493 	"/>
	<path fill="currentColor" d="M17.109,25.751h-0.755v-1.408h0.654l0.652-0.1l0.213,1.393L17.109,25.751z M13.231,25.407
		l-0.797-0.254l-0.628-0.314l0.628-1.26l0.584,0.291l0.624,0.193L13.231,25.407z M20.957,24.497l-0.83-1.135l1.139-0.83l0.842,1.127
		L20.957,24.497z M9.142,23.063l-0.953-1.059l1.047-0.941l0.94,1.045L9.142,23.063z M24.248,21.237l-1.217-0.709l0.697-1.195
		l1.207,0.633L24.6,20.63L24.248,21.237z M6.633,19.067L6.484,18.38l0.688-0.148l-0.688,0.146L6.26,17.71l1.353-0.385l0.248,0.76
		l0.146,0.689L6.633,19.067z M25.74,16.771l-1.406-0.037v-1.406l1.406-0.02V16.771z M7.689,14.79L6.33,14.437l0.172-0.779
		l0.221-0.666l1.335,0.443l-0.223,0.668L7.689,14.79z M23.729,12.765l-0.344-0.59l0.6-0.369l0.627-0.314l-0.627,0.314l0.631-0.314
		l0.305,0.611L23.729,12.765z M9.236,11.032l-1.059-0.93L9.132,9.05l1.044,0.938L9.236,11.032z M21.297,9.546l-0.576-0.379
		l0.377-0.598l0.412-0.568l-0.412,0.568l0.416-0.564l0.561,0.402L21.297,9.546z M12.269,8.456l-0.412-1.344l0.627-0.193l0.58-0.291
		l0.631,1.26l-0.754,0.361L12.269,8.456z M17.758,7.751l-0.818-0.01l-0.698-0.098l0.199-1.395l0.698,0.1l-0.102,0.693l0.102-0.693
		h0.701L17.758,7.751z"/>
</svg>
