<?xml version="1.0" encoding="utf-8"?>
<!-- Generator: Adobe Illustrator 16.0.0, SVG Export Plug-In . SVG Version: 6.00 Build 0)  -->
<!DOCTYPE svg PUBLIC "-//W3C//DTD SVG 1.1//EN" "http://www.w3.org/Graphics/SVG/1.1/DTD/svg11.dtd">
<svg version="1.1" id="Layer_1" xmlns="http://www.w3.org/2000/svg" xmlns:xlink="http://www.w3.org/1999/xlink" x="0px" y="0px" viewBox="0 0 32 32" xml:space="preserve">
	<path fill="currentColor" d="M24.292,13.557c-1.737-1.42-11.115-8.066-13.376-8.066S6.46,7.483,6.46,9.945v12.109
		c0,2.462,2.139,4.455,4.456,4.455c2.318,0,11.79-6.628,13.376-8.066C25.88,17.004,26.03,14.974,24.292,13.557z M23.297,17.628
		c-1.214,0.935-10.729,7.398-12.381,7.398c-1.651,0-2.972-1.33-2.972-2.972V9.945c0-1.642,1.061-2.974,2.972-2.974
		c1.912,0,11.236,6.601,12.381,7.397C24.55,15.247,24.511,16.692,23.297,17.628z"/>
</svg>
